<mxfile host="Electron" modified="2024-08-29T07:04:27.050Z" agent="Mozilla/5.0 (Macintosh; Intel Mac OS X 10_15_7) AppleWebKit/537.36 (KHTML, like Gecko) draw.io/22.0.3 Chrome/114.0.5735.289 Electron/25.8.4 Safari/537.36" etag="nFfGcYqpoSuSUM5YXC_U" version="22.0.3" type="device">
  <diagram name="第 1 页" id="TAsecxLYuVWEs4iL099d">
    <mxGraphModel dx="3043" dy="2259" grid="0" gridSize="10" guides="1" tooltips="1" connect="1" arrows="1" fold="1" page="0" pageScale="1" pageWidth="827" pageHeight="1169" math="0" shadow="0">
      <root>
        <mxCell id="0" />
        <mxCell id="1" parent="0" />
        <mxCell id="XWInlK-rsa3N5-CSSBgF-51" value="" style="rounded=0;whiteSpace=wrap;html=1;fillColor=#fafafa;fontColor=#333333;strokeColor=none;" vertex="1" parent="1">
          <mxGeometry x="829" y="-253" width="797" height="510" as="geometry" />
        </mxCell>
        <mxCell id="XWInlK-rsa3N5-CSSBgF-46" value="" style="rounded=1;whiteSpace=wrap;html=1;fillColor=#f8cecc;strokeColor=none;" vertex="1" parent="1">
          <mxGeometry x="723" y="108.5" width="700" height="60" as="geometry" />
        </mxCell>
        <mxCell id="XWInlK-rsa3N5-CSSBgF-45" value="" style="rounded=1;whiteSpace=wrap;html=1;fillColor=#f8cecc;strokeColor=none;" vertex="1" parent="1">
          <mxGeometry x="723" y="-29.5" width="700" height="60" as="geometry" />
        </mxCell>
        <mxCell id="LN5xQYH5PHp0VQhUfXdN-1" value="&lt;font style=&quot;font-size: 20px;&quot;&gt;Execution Engine&lt;/font&gt;" style="rounded=0;whiteSpace=wrap;html=1;fillColor=#f8cecc;strokeColor=#b85450;strokeWidth=2;fontFamily=Georgia,简宋;" parent="1" vertex="1">
          <mxGeometry x="-216" y="723" width="599" height="60" as="geometry" />
        </mxCell>
        <mxCell id="LN5xQYH5PHp0VQhUfXdN-4" value="&lt;font style=&quot;font-size: 20px;&quot;&gt;ELF_aarch32.cpp&lt;/font&gt;" style="rounded=0;whiteSpace=wrap;html=1;fillColor=#e1d5e7;strokeColor=#9673a6;strokeWidth=2;fontFamily=Georgia,简宋;" parent="1" vertex="1">
          <mxGeometry x="-147" y="-152" width="224" height="27" as="geometry" />
        </mxCell>
        <mxCell id="LN5xQYH5PHp0VQhUfXdN-5" value="&lt;font style=&quot;font-size: 20px;&quot;&gt;Interpreter&lt;/font&gt;" style="rounded=0;whiteSpace=wrap;html=1;fillColor=#e1d5e7;strokeColor=#9673a6;strokeWidth=2;fontFamily=Georgia,简宋;" parent="1" vertex="1">
          <mxGeometry x="220" y="654" width="163" height="60" as="geometry" />
        </mxCell>
        <mxCell id="LN5xQYH5PHp0VQhUfXdN-6" value="&lt;font style=&quot;font-size: 20px;&quot;&gt;llvm::JIT&lt;/font&gt;" style="rounded=0;whiteSpace=wrap;html=1;fillColor=#fff2cc;strokeColor=#d6b656;strokeWidth=2;fontFamily=Georgia,简宋;" parent="1" vertex="1">
          <mxGeometry x="-216" y="585" width="136" height="60" as="geometry" />
        </mxCell>
        <mxCell id="LN5xQYH5PHp0VQhUfXdN-7" value="&lt;font style=&quot;font-size: 20px;&quot;&gt;llvm::MCJIT&lt;/font&gt;" style="rounded=0;whiteSpace=wrap;html=1;fillColor=#fff2cc;strokeColor=#d6b656;strokeWidth=2;fontFamily=Georgia,简宋;" parent="1" vertex="1">
          <mxGeometry x="-69" y="585" width="128" height="60" as="geometry" />
        </mxCell>
        <mxCell id="LN5xQYH5PHp0VQhUfXdN-8" value="&lt;font style=&quot;font-size: 20px;&quot;&gt;llvm::ORC&lt;/font&gt;" style="rounded=0;whiteSpace=wrap;html=1;fillColor=#fff2cc;strokeColor=#d6b656;strokeWidth=2;fontFamily=Georgia,简宋;" parent="1" vertex="1">
          <mxGeometry x="69" y="585" width="141" height="60" as="geometry" />
        </mxCell>
        <mxCell id="LN5xQYH5PHp0VQhUfXdN-11" value="&lt;font style=&quot;font-size: 21px;&quot;&gt;LLVM JITLink&lt;br style=&quot;font-size: 21px;&quot;&gt;&lt;/font&gt;" style="rounded=0;whiteSpace=wrap;html=1;fillColor=#f5f5f5;strokeColor=#666666;strokeWidth=2;fontColor=#333333;fontSize=21;horizontal=1;fontFamily=Georgia,简宋;" parent="1" vertex="1">
          <mxGeometry x="-445" y="-574" width="79" height="1049" as="geometry" />
        </mxCell>
        <mxCell id="LN5xQYH5PHp0VQhUfXdN-13" value="&lt;font style=&quot;font-size: 20px;&quot;&gt;COFF&lt;/font&gt;" style="rounded=0;whiteSpace=wrap;html=1;fillColor=#fff2cc;strokeColor=#d6b656;strokeWidth=2;fontFamily=Georgia,简宋;" parent="1" vertex="1">
          <mxGeometry x="-351" y="-253" width="81" height="26" as="geometry" />
        </mxCell>
        <mxCell id="LN5xQYH5PHp0VQhUfXdN-14" value="&lt;font style=&quot;font-size: 20px;&quot;&gt;Mach-O&lt;/font&gt;" style="rounded=0;whiteSpace=wrap;html=1;fillColor=#fff2cc;strokeColor=#d6b656;strokeWidth=2;fontFamily=Georgia,简宋;" parent="1" vertex="1">
          <mxGeometry x="-352" y="-217" width="81" height="55" as="geometry" />
        </mxCell>
        <mxCell id="LN5xQYH5PHp0VQhUfXdN-15" value="&lt;font style=&quot;font-size: 20px;&quot;&gt;ELF&lt;/font&gt;" style="rounded=0;whiteSpace=wrap;html=1;fillColor=#fff2cc;strokeColor=#d6b656;strokeWidth=2;fontFamily=Georgia,简宋;" parent="1" vertex="1">
          <mxGeometry x="-352" y="-152" width="82" height="189" as="geometry" />
        </mxCell>
        <mxCell id="LN5xQYH5PHp0VQhUfXdN-16" value="&lt;font style=&quot;font-size: 20px;&quot;&gt;aarch32&lt;/font&gt;" style="rounded=0;whiteSpace=wrap;html=1;fillColor=#e1d5e7;strokeColor=#9673a6;strokeWidth=2;fontFamily=Georgia,简宋;" parent="1" vertex="1">
          <mxGeometry x="-256" y="-152" width="109" height="27" as="geometry" />
        </mxCell>
        <mxCell id="LN5xQYH5PHp0VQhUfXdN-17" value="&lt;font style=&quot;font-size: 20px;&quot;&gt;aarch64&lt;/font&gt;" style="rounded=0;whiteSpace=wrap;html=1;fillColor=#e1d5e7;strokeColor=#9673a6;strokeWidth=2;fontFamily=Georgia,简宋;" parent="1" vertex="1">
          <mxGeometry x="-256" y="-125" width="109" height="27" as="geometry" />
        </mxCell>
        <mxCell id="LN5xQYH5PHp0VQhUfXdN-18" value="&lt;font style=&quot;font-size: 20px;&quot;&gt;i386&lt;/font&gt;" style="rounded=0;whiteSpace=wrap;html=1;fillColor=#e1d5e7;strokeColor=#9673a6;strokeWidth=2;fontFamily=Georgia,简宋;" parent="1" vertex="1">
          <mxGeometry x="-256" y="-98" width="109" height="27" as="geometry" />
        </mxCell>
        <mxCell id="LN5xQYH5PHp0VQhUfXdN-19" value="&lt;font style=&quot;font-size: 20px;&quot;&gt;loongarch&lt;/font&gt;" style="rounded=0;whiteSpace=wrap;html=1;fillColor=#e1d5e7;strokeColor=#9673a6;strokeWidth=2;fontFamily=Georgia,简宋;" parent="1" vertex="1">
          <mxGeometry x="-256" y="-71" width="109" height="27" as="geometry" />
        </mxCell>
        <mxCell id="LN5xQYH5PHp0VQhUfXdN-20" value="&lt;font style=&quot;font-size: 20px;&quot;&gt;ppc&lt;/font&gt;" style="rounded=0;whiteSpace=wrap;html=1;fillColor=#e1d5e7;strokeColor=#9673a6;strokeWidth=2;fontFamily=Georgia,简宋;" parent="1" vertex="1">
          <mxGeometry x="-256" y="-44" width="109" height="27" as="geometry" />
        </mxCell>
        <mxCell id="LN5xQYH5PHp0VQhUfXdN-21" value="&lt;font style=&quot;font-size: 20px;&quot;&gt;riscv&lt;/font&gt;" style="rounded=0;whiteSpace=wrap;html=1;fillColor=#e1d5e7;strokeColor=#9673a6;strokeWidth=2;fontFamily=Georgia,简宋;" parent="1" vertex="1">
          <mxGeometry x="-256" y="-17" width="109" height="27" as="geometry" />
        </mxCell>
        <mxCell id="LN5xQYH5PHp0VQhUfXdN-22" value="&lt;font style=&quot;font-size: 20px;&quot;&gt;x86-64&lt;/font&gt;" style="rounded=0;whiteSpace=wrap;html=1;fillColor=#e1d5e7;strokeColor=#9673a6;strokeWidth=2;fontFamily=Georgia,简宋;" parent="1" vertex="1">
          <mxGeometry x="-256" y="10" width="109" height="27" as="geometry" />
        </mxCell>
        <mxCell id="LN5xQYH5PHp0VQhUfXdN-24" value="&lt;font style=&quot;font-size: 20px;&quot;&gt;x86-64&lt;/font&gt;" style="rounded=0;whiteSpace=wrap;html=1;fillColor=#e1d5e7;strokeColor=#9673a6;strokeWidth=2;fontFamily=Georgia,简宋;" parent="1" vertex="1">
          <mxGeometry x="-256" y="-253" width="109" height="27" as="geometry" />
        </mxCell>
        <mxCell id="LN5xQYH5PHp0VQhUfXdN-25" value="&lt;font style=&quot;font-size: 20px;&quot;&gt;x86-64&lt;/font&gt;" style="rounded=0;whiteSpace=wrap;html=1;fillColor=#e1d5e7;strokeColor=#9673a6;strokeWidth=2;fontFamily=Georgia,简宋;" parent="1" vertex="1">
          <mxGeometry x="-256" y="-216" width="109" height="27" as="geometry" />
        </mxCell>
        <mxCell id="LN5xQYH5PHp0VQhUfXdN-26" value="&lt;font style=&quot;font-size: 20px;&quot;&gt;arm&lt;/font&gt;" style="rounded=0;whiteSpace=wrap;html=1;fillColor=#e1d5e7;strokeColor=#9673a6;strokeWidth=2;fontFamily=Georgia,简宋;" parent="1" vertex="1">
          <mxGeometry x="-256" y="-189" width="109" height="27" as="geometry" />
        </mxCell>
        <mxCell id="LN5xQYH5PHp0VQhUfXdN-27" value="&lt;font style=&quot;font-size: 20px;&quot;&gt;ELF_aarch64.cpp&lt;/font&gt;" style="rounded=0;whiteSpace=wrap;html=1;fillColor=#e1d5e7;strokeColor=#9673a6;strokeWidth=2;fontFamily=Georgia,简宋;" parent="1" vertex="1">
          <mxGeometry x="-147" y="-125" width="224" height="27" as="geometry" />
        </mxCell>
        <mxCell id="LN5xQYH5PHp0VQhUfXdN-28" value="&lt;font style=&quot;font-size: 20px;&quot;&gt;ELF_i386.cpp&lt;/font&gt;" style="rounded=0;whiteSpace=wrap;html=1;fillColor=#e1d5e7;strokeColor=#9673a6;strokeWidth=2;fontFamily=Georgia,简宋;" parent="1" vertex="1">
          <mxGeometry x="-147" y="-98" width="224" height="27" as="geometry" />
        </mxCell>
        <mxCell id="LN5xQYH5PHp0VQhUfXdN-29" value="&lt;font style=&quot;font-size: 20px;&quot;&gt;ELF_loongarch.cpp&lt;/font&gt;" style="rounded=0;whiteSpace=wrap;html=1;fillColor=#e1d5e7;strokeColor=#9673a6;strokeWidth=2;fontFamily=Georgia,简宋;" parent="1" vertex="1">
          <mxGeometry x="-147" y="-71" width="224" height="27" as="geometry" />
        </mxCell>
        <mxCell id="LN5xQYH5PHp0VQhUfXdN-30" value="&lt;font style=&quot;font-size: 20px;&quot;&gt;ELF_ppc64.cpp&lt;/font&gt;" style="rounded=0;whiteSpace=wrap;html=1;fillColor=#e1d5e7;strokeColor=#9673a6;strokeWidth=2;fontFamily=Georgia,简宋;" parent="1" vertex="1">
          <mxGeometry x="-147" y="-44" width="224" height="27" as="geometry" />
        </mxCell>
        <mxCell id="LN5xQYH5PHp0VQhUfXdN-31" value="&lt;font style=&quot;font-size: 20px;&quot;&gt;ELF_riscv.cpp&lt;/font&gt;" style="rounded=0;whiteSpace=wrap;html=1;fillColor=#e1d5e7;strokeColor=#9673a6;strokeWidth=2;fontFamily=Georgia,简宋;" parent="1" vertex="1">
          <mxGeometry x="-147" y="-17" width="224" height="27" as="geometry" />
        </mxCell>
        <mxCell id="LN5xQYH5PHp0VQhUfXdN-32" value="&lt;font style=&quot;font-size: 20px;&quot;&gt;ELF_x86_64.cpp&lt;/font&gt;" style="rounded=0;whiteSpace=wrap;html=1;fillColor=#e1d5e7;strokeColor=#9673a6;strokeWidth=2;fontFamily=Georgia,简宋;" parent="1" vertex="1">
          <mxGeometry x="-147" y="10" width="224" height="27" as="geometry" />
        </mxCell>
        <mxCell id="LN5xQYH5PHp0VQhUfXdN-38" value="RISCV" style="swimlane;whiteSpace=wrap;html=1;strokeWidth=2;fillColor=#f8cecc;strokeColor=#b85450;fontFamily=Georgia,简宋;" parent="1" vertex="1">
          <mxGeometry x="103" y="-152" width="210" height="189" as="geometry" />
        </mxCell>
        <mxCell id="LN5xQYH5PHp0VQhUfXdN-41" value="&lt;div style=&quot;text-align: left; font-size: 15px;&quot;&gt;&lt;span style=&quot;background-color: initial;&quot;&gt;&lt;font style=&quot;font-size: 15px;&quot;&gt;Stub信息&lt;/font&gt;&lt;/span&gt;&lt;/div&gt;&lt;div style=&quot;text-align: left; font-size: 15px;&quot;&gt;&lt;span style=&quot;background-color: initial;&quot;&gt;&lt;font style=&quot;font-size: 15px;&quot;&gt;重定位添加入LinkGraph&lt;/font&gt;&lt;/span&gt;&lt;/div&gt;&lt;div style=&quot;text-align: left; font-size: 15px;&quot;&gt;&lt;span style=&quot;background-color: initial;&quot;&gt;&lt;font style=&quot;font-size: 15px;&quot;&gt;重点：重定位Fixup实现&lt;/font&gt;&lt;/span&gt;&lt;/div&gt;&lt;div style=&quot;text-align: left; font-size: 15px;&quot;&gt;&lt;span style=&quot;background-color: initial;&quot;&gt;&lt;font style=&quot;font-size: 15px;&quot;&gt;relax操作&lt;/font&gt;&lt;/span&gt;&lt;/div&gt;&lt;div style=&quot;text-align: left; font-size: 15px;&quot;&gt;&lt;span style=&quot;background-color: initial;&quot;&gt;&lt;font style=&quot;font-size: 15px;&quot;&gt;LinkGraph接口实现&lt;/font&gt;&lt;/span&gt;&lt;/div&gt;&lt;div style=&quot;text-align: left; font-size: 15px;&quot;&gt;&lt;span style=&quot;background-color: initial;&quot;&gt;&lt;font style=&quot;font-size: 15px;&quot;&gt;(重定位类型与边类型对应)&lt;/font&gt;&lt;/span&gt;&lt;/div&gt;&lt;div style=&quot;text-align: left; font-size: 15px;&quot;&gt;&lt;span style=&quot;background-color: initial;&quot;&gt;&lt;font style=&quot;font-size: 15px;&quot;&gt;入口：链接操作&lt;/font&gt;&lt;/span&gt;&lt;/div&gt;&lt;div style=&quot;text-align: left; font-size: 15px;&quot;&gt;&lt;span style=&quot;background-color: initial;&quot;&gt;&lt;font style=&quot;font-size: 15px;&quot;&gt;重点：由Object构建链接图&lt;/font&gt;&lt;/span&gt;&lt;/div&gt;" style="rounded=0;whiteSpace=wrap;html=1;fillColor=none;strokeColor=none;strokeWidth=2;fontFamily=Georgia,简宋;" parent="LN5xQYH5PHp0VQhUfXdN-38" vertex="1">
          <mxGeometry x="-4" y="23" width="214" height="163" as="geometry" />
        </mxCell>
        <mxCell id="LN5xQYH5PHp0VQhUfXdN-39" value="" style="curved=1;endArrow=classicThin;html=1;rounded=0;entryX=0;entryY=0.25;entryDx=0;entryDy=0;strokeWidth=2;endFill=1;fillColor=#e1d5e7;strokeColor=#9673a6;fontFamily=Georgia,简宋;" parent="1" target="LN5xQYH5PHp0VQhUfXdN-38" edge="1">
          <mxGeometry width="50" height="50" relative="1" as="geometry">
            <mxPoint x="77" y="-3" as="sourcePoint" />
            <mxPoint x="127" y="-53" as="targetPoint" />
            <Array as="points">
              <mxPoint x="82" y="-83" />
            </Array>
          </mxGeometry>
        </mxCell>
        <mxCell id="LN5xQYH5PHp0VQhUfXdN-43" value="&lt;font&gt;&lt;span style=&quot;font-size: 20px;&quot;&gt;aarch32.cpp&lt;/span&gt;&lt;/font&gt;" style="rounded=0;whiteSpace=wrap;html=1;fillColor=#fff2cc;strokeColor=#d6b656;strokeWidth=2;fontFamily=Georgia,简宋;" parent="1" vertex="1">
          <mxGeometry x="-353" y="53" width="138" height="27" as="geometry" />
        </mxCell>
        <mxCell id="LN5xQYH5PHp0VQhUfXdN-44" value="&lt;font&gt;&lt;span style=&quot;font-size: 20px;&quot;&gt;aarch64.cpp&lt;/span&gt;&lt;/font&gt;" style="rounded=0;whiteSpace=wrap;html=1;fillColor=#fff2cc;strokeColor=#d6b656;strokeWidth=2;fontFamily=Georgia,简宋;" parent="1" vertex="1">
          <mxGeometry x="-353" y="80" width="138" height="27" as="geometry" />
        </mxCell>
        <mxCell id="LN5xQYH5PHp0VQhUfXdN-45" value="&lt;font&gt;&lt;span style=&quot;font-size: 20px;&quot;&gt;i386.cpp&lt;/span&gt;&lt;/font&gt;" style="rounded=0;whiteSpace=wrap;html=1;fillColor=#fff2cc;strokeColor=#d6b656;strokeWidth=2;fontFamily=Georgia,简宋;" parent="1" vertex="1">
          <mxGeometry x="-353" y="107" width="138" height="27" as="geometry" />
        </mxCell>
        <mxCell id="LN5xQYH5PHp0VQhUfXdN-46" value="&lt;font&gt;&lt;span style=&quot;font-size: 20px;&quot;&gt;loongarch.cpp&lt;/span&gt;&lt;/font&gt;" style="rounded=0;whiteSpace=wrap;html=1;fillColor=#fff2cc;strokeColor=#d6b656;strokeWidth=2;fontFamily=Georgia,简宋;" parent="1" vertex="1">
          <mxGeometry x="-353" y="134" width="138" height="27" as="geometry" />
        </mxCell>
        <mxCell id="LN5xQYH5PHp0VQhUfXdN-47" value="&lt;font&gt;&lt;span style=&quot;font-size: 20px;&quot;&gt;ppc64.cpp&lt;/span&gt;&lt;/font&gt;" style="rounded=0;whiteSpace=wrap;html=1;fillColor=#fff2cc;strokeColor=#d6b656;strokeWidth=2;fontFamily=Georgia,简宋;" parent="1" vertex="1">
          <mxGeometry x="-353" y="161" width="138" height="27" as="geometry" />
        </mxCell>
        <mxCell id="LN5xQYH5PHp0VQhUfXdN-48" value="&lt;font&gt;&lt;span style=&quot;font-size: 20px;&quot;&gt;riscv.cpp&lt;/span&gt;&lt;/font&gt;" style="rounded=0;whiteSpace=wrap;html=1;fillColor=#fff2cc;strokeColor=#d6b656;strokeWidth=2;fontFamily=Georgia,简宋;" parent="1" vertex="1">
          <mxGeometry x="-353" y="188" width="138" height="27" as="geometry" />
        </mxCell>
        <mxCell id="LN5xQYH5PHp0VQhUfXdN-49" value="&lt;font&gt;&lt;span style=&quot;font-size: 20px;&quot;&gt;x86_64.cpp&lt;/span&gt;&lt;/font&gt;" style="rounded=0;whiteSpace=wrap;html=1;fillColor=#fff2cc;strokeColor=#d6b656;strokeWidth=2;fontFamily=Georgia,简宋;" parent="1" vertex="1">
          <mxGeometry x="-353" y="215" width="138" height="27" as="geometry" />
        </mxCell>
        <mxCell id="LN5xQYH5PHp0VQhUfXdN-51" value="X86.cpp" style="swimlane;whiteSpace=wrap;html=1;strokeWidth=2;fillColor=#e1d5e7;strokeColor=#9673a6;fontFamily=Georgia,简宋;" parent="1" vertex="1">
          <mxGeometry x="-65" y="53" width="143" height="97" as="geometry" />
        </mxCell>
        <mxCell id="LN5xQYH5PHp0VQhUfXdN-52" value="&lt;div style=&quot;text-align: left; font-size: 15px;&quot;&gt;&lt;font&gt;&lt;b&gt;获取边类型&lt;/b&gt;&lt;/font&gt;&lt;/div&gt;&lt;div style=&quot;text-align: left; font-size: 15px;&quot;&gt;&lt;font&gt;&lt;b&gt;边优化&lt;/b&gt;:根据链接图相邻元素优化GOT和Stub指令&lt;br&gt;&lt;/font&gt;&lt;/div&gt;" style="rounded=0;whiteSpace=wrap;html=1;fillColor=none;strokeColor=none;strokeWidth=2;fontFamily=Georgia,简宋;" parent="LN5xQYH5PHp0VQhUfXdN-51" vertex="1">
          <mxGeometry x="4" y="23" width="136" height="72" as="geometry" />
        </mxCell>
        <mxCell id="LN5xQYH5PHp0VQhUfXdN-54" value="&lt;font&gt;&lt;span style=&quot;font-size: 20px;&quot;&gt;EHFrameSupport.cpp&lt;/span&gt;&lt;/font&gt;" style="rounded=0;whiteSpace=wrap;html=1;fillColor=#fff2cc;strokeColor=#d6b656;strokeWidth=2;fontFamily=Georgia,简宋;" parent="1" vertex="1">
          <mxGeometry x="-352" y="258" width="276" height="27" as="geometry" />
        </mxCell>
        <mxCell id="LN5xQYH5PHp0VQhUfXdN-57" value="&lt;font style=&quot;font-size: 18px;&quot;&gt;DWARFRecordSectionSplitter.cpp&lt;/font&gt;" style="rounded=0;whiteSpace=wrap;html=1;fillColor=#fff2cc;strokeColor=#d6b656;strokeWidth=2;fontFamily=Georgia,简宋;" parent="1" vertex="1">
          <mxGeometry x="-352" y="285" width="276" height="27" as="geometry" />
        </mxCell>
        <mxCell id="LN5xQYH5PHp0VQhUfXdN-58" value="&lt;font style=&quot;font-size: 19px;&quot;&gt;ELFLinkGraphBuilder.cpp&lt;/font&gt;" style="rounded=0;whiteSpace=wrap;html=1;fillColor=#fff2cc;strokeColor=#d6b656;strokeWidth=2;fontFamily=Georgia,简宋;" parent="1" vertex="1">
          <mxGeometry x="-352" y="312" width="276" height="27" as="geometry" />
        </mxCell>
        <mxCell id="LN5xQYH5PHp0VQhUfXdN-59" value="&lt;font&gt;&lt;span style=&quot;font-size: 20px;&quot;&gt;ELF.cpp&lt;/span&gt;&lt;/font&gt;" style="rounded=0;whiteSpace=wrap;html=1;fillColor=#fff2cc;strokeColor=#d6b656;strokeWidth=2;fontStyle=1;fontFamily=Georgia,简宋;" parent="1" vertex="1">
          <mxGeometry x="-352" y="339" width="276" height="27" as="geometry" />
        </mxCell>
        <mxCell id="LN5xQYH5PHp0VQhUfXdN-60" value="&lt;font&gt;&lt;span style=&quot;font-size: 20px;&quot;&gt;JITLinkGeneric.cpp&lt;/span&gt;&lt;/font&gt;" style="rounded=0;whiteSpace=wrap;html=1;fillColor=#fff2cc;strokeColor=#d6b656;strokeWidth=2;fontStyle=1;fontFamily=Georgia,简宋;" parent="1" vertex="1">
          <mxGeometry x="-352" y="366" width="276" height="27" as="geometry" />
        </mxCell>
        <mxCell id="LN5xQYH5PHp0VQhUfXdN-61" value="&lt;font&gt;&lt;span style=&quot;font-size: 20px;&quot;&gt;JITLink.cpp&lt;/span&gt;&lt;/font&gt;" style="rounded=0;whiteSpace=wrap;html=1;fillColor=#fff2cc;strokeColor=#d6b656;strokeWidth=2;fontStyle=1;fontFamily=Georgia,简宋;" parent="1" vertex="1">
          <mxGeometry x="-352" y="393" width="276" height="27" as="geometry" />
        </mxCell>
        <mxCell id="LN5xQYH5PHp0VQhUfXdN-62" value="&lt;font style=&quot;font-size: 20px;&quot;&gt;JITLinkMemoryManager.cpp&lt;/font&gt;" style="rounded=0;whiteSpace=wrap;html=1;fillColor=#fff2cc;strokeColor=#d6b656;strokeWidth=2;fontFamily=Georgia,简宋;" parent="1" vertex="1">
          <mxGeometry x="-352" y="420" width="276" height="27" as="geometry" />
        </mxCell>
        <mxCell id="LN5xQYH5PHp0VQhUfXdN-65" value="&lt;font&gt;&lt;span style=&quot;font-size: 20px;&quot;&gt;...&lt;/span&gt;&lt;/font&gt;" style="rounded=0;whiteSpace=wrap;html=1;fillColor=#fff2cc;strokeColor=#d6b656;strokeWidth=2;fontFamily=Georgia,简宋;" parent="1" vertex="1">
          <mxGeometry x="-352" y="447" width="276" height="27" as="geometry" />
        </mxCell>
        <mxCell id="LN5xQYH5PHp0VQhUfXdN-68" value="异常处理帧" style="swimlane;whiteSpace=wrap;html=1;strokeWidth=2;fillColor=#f8cecc;strokeColor=#b85450;startSize=16;fontFamily=Georgia,简宋;" parent="1" vertex="1">
          <mxGeometry x="103" y="53" width="210" height="97" as="geometry" />
        </mxCell>
        <mxCell id="LN5xQYH5PHp0VQhUfXdN-69" value="&lt;div style=&quot;text-align: left; font-size: 15px;&quot;&gt;&lt;br&gt;&lt;/div&gt;" style="rounded=0;whiteSpace=wrap;html=1;fillColor=none;strokeColor=none;strokeWidth=2;fontFamily=Georgia,简宋;" parent="LN5xQYH5PHp0VQhUfXdN-68" vertex="1">
          <mxGeometry y="23" width="210" height="66" as="geometry" />
        </mxCell>
        <mxCell id="LN5xQYH5PHp0VQhUfXdN-72" value="DWARF 调试信息格式的记录分割" style="swimlane;whiteSpace=wrap;html=1;strokeWidth=2;fillColor=#f8cecc;strokeColor=#b85450;startSize=15;fontFamily=Georgia,简宋;" parent="1" vertex="1">
          <mxGeometry x="103" y="150" width="210" height="93" as="geometry" />
        </mxCell>
        <mxCell id="LN5xQYH5PHp0VQhUfXdN-73" value="&lt;div style=&quot;text-align: left; font-size: 15px;&quot;&gt;&lt;br&gt;&lt;/div&gt;" style="rounded=0;whiteSpace=wrap;html=1;fillColor=none;strokeColor=none;strokeWidth=2;fontFamily=Georgia,简宋;" parent="LN5xQYH5PHp0VQhUfXdN-72" vertex="1">
          <mxGeometry y="15.5" width="210" height="76.5" as="geometry" />
        </mxCell>
        <mxCell id="LN5xQYH5PHp0VQhUfXdN-74" value="&lt;font style=&quot;font-size: 20px;&quot;&gt;COFF_x86_64.cpp&lt;/font&gt;" style="rounded=0;whiteSpace=wrap;html=1;fillColor=#e1d5e7;strokeColor=#9673a6;strokeWidth=2;fontFamily=Georgia,简宋;" parent="1" vertex="1">
          <mxGeometry x="-147" y="-253" width="224" height="27" as="geometry" />
        </mxCell>
        <mxCell id="LN5xQYH5PHp0VQhUfXdN-75" value="&lt;font style=&quot;font-size: 20px;&quot;&gt;MachO_x86_64.cpp&lt;/font&gt;" style="rounded=0;whiteSpace=wrap;html=1;fillColor=#e1d5e7;strokeColor=#9673a6;strokeWidth=2;fontFamily=Georgia,简宋;" parent="1" vertex="1">
          <mxGeometry x="-147" y="-216" width="224" height="27" as="geometry" />
        </mxCell>
        <mxCell id="LN5xQYH5PHp0VQhUfXdN-76" value="&lt;font style=&quot;font-size: 20px;&quot;&gt;MachO_arm64.cpp&lt;/font&gt;" style="rounded=0;whiteSpace=wrap;html=1;fillColor=#e1d5e7;strokeColor=#9673a6;strokeWidth=2;fontFamily=Georgia,简宋;" parent="1" vertex="1">
          <mxGeometry x="-147" y="-189" width="224" height="27" as="geometry" />
        </mxCell>
        <mxCell id="LN5xQYH5PHp0VQhUfXdN-81" value="&lt;font style=&quot;font-size: 20px;&quot;&gt;ELF_aarch32.h&lt;/font&gt;" style="rounded=0;whiteSpace=wrap;html=1;fillColor=#e1d5e7;strokeColor=#9673a6;strokeWidth=2;fontFamily=Georgia,简宋;" parent="1" vertex="1">
          <mxGeometry x="-146" y="-473" width="224" height="27" as="geometry" />
        </mxCell>
        <mxCell id="LN5xQYH5PHp0VQhUfXdN-82" value="&lt;font style=&quot;font-size: 20px;&quot;&gt;COFF&lt;/font&gt;" style="rounded=0;whiteSpace=wrap;html=1;fillColor=#fff2cc;strokeColor=#d6b656;strokeWidth=2;fontFamily=Georgia,简宋;" parent="1" vertex="1">
          <mxGeometry x="-350" y="-574" width="81" height="26" as="geometry" />
        </mxCell>
        <mxCell id="LN5xQYH5PHp0VQhUfXdN-83" value="&lt;font style=&quot;font-size: 20px;&quot;&gt;Mach-O&lt;/font&gt;" style="rounded=0;whiteSpace=wrap;html=1;fillColor=#fff2cc;strokeColor=#d6b656;strokeWidth=2;fontFamily=Georgia,简宋;" parent="1" vertex="1">
          <mxGeometry x="-351" y="-538" width="81" height="55" as="geometry" />
        </mxCell>
        <mxCell id="LN5xQYH5PHp0VQhUfXdN-84" value="&lt;font style=&quot;font-size: 20px;&quot;&gt;ELF&lt;/font&gt;" style="rounded=0;whiteSpace=wrap;html=1;fillColor=#fff2cc;strokeColor=#d6b656;strokeWidth=2;fontFamily=Georgia,简宋;" parent="1" vertex="1">
          <mxGeometry x="-351" y="-473" width="82" height="189" as="geometry" />
        </mxCell>
        <mxCell id="LN5xQYH5PHp0VQhUfXdN-85" value="&lt;font style=&quot;font-size: 20px;&quot;&gt;aarch32&lt;/font&gt;" style="rounded=0;whiteSpace=wrap;html=1;fillColor=#e1d5e7;strokeColor=#9673a6;strokeWidth=2;fontFamily=Georgia,简宋;" parent="1" vertex="1">
          <mxGeometry x="-255" y="-473" width="109" height="27" as="geometry" />
        </mxCell>
        <mxCell id="LN5xQYH5PHp0VQhUfXdN-86" value="&lt;font style=&quot;font-size: 20px;&quot;&gt;aarch64&lt;/font&gt;" style="rounded=0;whiteSpace=wrap;html=1;fillColor=#e1d5e7;strokeColor=#9673a6;strokeWidth=2;fontFamily=Georgia,简宋;" parent="1" vertex="1">
          <mxGeometry x="-255" y="-446" width="109" height="27" as="geometry" />
        </mxCell>
        <mxCell id="LN5xQYH5PHp0VQhUfXdN-87" value="&lt;font style=&quot;font-size: 20px;&quot;&gt;i386&lt;/font&gt;" style="rounded=0;whiteSpace=wrap;html=1;fillColor=#e1d5e7;strokeColor=#9673a6;strokeWidth=2;fontFamily=Georgia,简宋;" parent="1" vertex="1">
          <mxGeometry x="-255" y="-419" width="109" height="27" as="geometry" />
        </mxCell>
        <mxCell id="LN5xQYH5PHp0VQhUfXdN-88" value="&lt;font style=&quot;font-size: 20px;&quot;&gt;loongarch&lt;/font&gt;" style="rounded=0;whiteSpace=wrap;html=1;fillColor=#e1d5e7;strokeColor=#9673a6;strokeWidth=2;fontFamily=Georgia,简宋;" parent="1" vertex="1">
          <mxGeometry x="-255" y="-392" width="109" height="27" as="geometry" />
        </mxCell>
        <mxCell id="LN5xQYH5PHp0VQhUfXdN-89" value="&lt;font style=&quot;font-size: 20px;&quot;&gt;ppc&lt;/font&gt;" style="rounded=0;whiteSpace=wrap;html=1;fillColor=#e1d5e7;strokeColor=#9673a6;strokeWidth=2;fontFamily=Georgia,简宋;" parent="1" vertex="1">
          <mxGeometry x="-255" y="-365" width="109" height="27" as="geometry" />
        </mxCell>
        <mxCell id="LN5xQYH5PHp0VQhUfXdN-90" value="&lt;font style=&quot;font-size: 20px;&quot;&gt;riscv&lt;/font&gt;" style="rounded=0;whiteSpace=wrap;html=1;fillColor=#e1d5e7;strokeColor=#9673a6;strokeWidth=2;fontFamily=Georgia,简宋;" parent="1" vertex="1">
          <mxGeometry x="-255" y="-338" width="109" height="27" as="geometry" />
        </mxCell>
        <mxCell id="LN5xQYH5PHp0VQhUfXdN-91" value="&lt;font style=&quot;font-size: 20px;&quot;&gt;x86-64&lt;/font&gt;" style="rounded=0;whiteSpace=wrap;html=1;fillColor=#e1d5e7;strokeColor=#9673a6;strokeWidth=2;fontFamily=Georgia,简宋;" parent="1" vertex="1">
          <mxGeometry x="-255" y="-311" width="109" height="27" as="geometry" />
        </mxCell>
        <mxCell id="LN5xQYH5PHp0VQhUfXdN-92" value="&lt;font style=&quot;font-size: 20px;&quot;&gt;x86-64&lt;/font&gt;" style="rounded=0;whiteSpace=wrap;html=1;fillColor=#e1d5e7;strokeColor=#9673a6;strokeWidth=2;fontFamily=Georgia,简宋;" parent="1" vertex="1">
          <mxGeometry x="-255" y="-574" width="109" height="27" as="geometry" />
        </mxCell>
        <mxCell id="LN5xQYH5PHp0VQhUfXdN-93" value="&lt;font style=&quot;font-size: 20px;&quot;&gt;x86-64&lt;/font&gt;" style="rounded=0;whiteSpace=wrap;html=1;fillColor=#e1d5e7;strokeColor=#9673a6;strokeWidth=2;fontFamily=Georgia,简宋;" parent="1" vertex="1">
          <mxGeometry x="-255" y="-537" width="109" height="27" as="geometry" />
        </mxCell>
        <mxCell id="LN5xQYH5PHp0VQhUfXdN-94" value="&lt;font style=&quot;font-size: 20px;&quot;&gt;arm&lt;/font&gt;" style="rounded=0;whiteSpace=wrap;html=1;fillColor=#e1d5e7;strokeColor=#9673a6;strokeWidth=2;fontFamily=Georgia,简宋;" parent="1" vertex="1">
          <mxGeometry x="-255" y="-510" width="109" height="27" as="geometry" />
        </mxCell>
        <mxCell id="LN5xQYH5PHp0VQhUfXdN-95" value="&lt;font style=&quot;font-size: 20px;&quot;&gt;ELF_aarch64.h&lt;/font&gt;" style="rounded=0;whiteSpace=wrap;html=1;fillColor=#e1d5e7;strokeColor=#9673a6;strokeWidth=2;fontFamily=Georgia,简宋;" parent="1" vertex="1">
          <mxGeometry x="-146" y="-446" width="224" height="27" as="geometry" />
        </mxCell>
        <mxCell id="LN5xQYH5PHp0VQhUfXdN-96" value="&lt;font style=&quot;font-size: 20px;&quot;&gt;ELF_i386.h&lt;/font&gt;" style="rounded=0;whiteSpace=wrap;html=1;fillColor=#e1d5e7;strokeColor=#9673a6;strokeWidth=2;fontFamily=Georgia,简宋;" parent="1" vertex="1">
          <mxGeometry x="-146" y="-419" width="224" height="27" as="geometry" />
        </mxCell>
        <mxCell id="LN5xQYH5PHp0VQhUfXdN-97" value="&lt;font style=&quot;font-size: 20px;&quot;&gt;ELF_loongarch.h&lt;/font&gt;" style="rounded=0;whiteSpace=wrap;html=1;fillColor=#e1d5e7;strokeColor=#9673a6;strokeWidth=2;fontFamily=Georgia,简宋;" parent="1" vertex="1">
          <mxGeometry x="-146" y="-392" width="224" height="27" as="geometry" />
        </mxCell>
        <mxCell id="LN5xQYH5PHp0VQhUfXdN-98" value="&lt;font style=&quot;font-size: 20px;&quot;&gt;ELF_ppc64.h&lt;/font&gt;" style="rounded=0;whiteSpace=wrap;html=1;fillColor=#e1d5e7;strokeColor=#9673a6;strokeWidth=2;fontFamily=Georgia,简宋;" parent="1" vertex="1">
          <mxGeometry x="-146" y="-365" width="224" height="27" as="geometry" />
        </mxCell>
        <mxCell id="LN5xQYH5PHp0VQhUfXdN-99" value="&lt;font style=&quot;font-size: 20px;&quot;&gt;ELF_riscv.h&lt;/font&gt;" style="rounded=0;whiteSpace=wrap;html=1;fillColor=#e1d5e7;strokeColor=#9673a6;strokeWidth=2;fontFamily=Georgia,简宋;" parent="1" vertex="1">
          <mxGeometry x="-146" y="-338" width="224" height="27" as="geometry" />
        </mxCell>
        <mxCell id="LN5xQYH5PHp0VQhUfXdN-100" value="&lt;font style=&quot;font-size: 20px;&quot;&gt;ELF_x86_64.h&lt;/font&gt;" style="rounded=0;whiteSpace=wrap;html=1;fillColor=#e1d5e7;strokeColor=#9673a6;strokeWidth=2;fontFamily=Georgia,简宋;" parent="1" vertex="1">
          <mxGeometry x="-146" y="-311" width="224" height="27" as="geometry" />
        </mxCell>
        <mxCell id="LN5xQYH5PHp0VQhUfXdN-101" value="&lt;font style=&quot;font-size: 20px;&quot;&gt;COFF_x86_64.h&lt;/font&gt;" style="rounded=0;whiteSpace=wrap;html=1;fillColor=#e1d5e7;strokeColor=#9673a6;strokeWidth=2;fontFamily=Georgia,简宋;" parent="1" vertex="1">
          <mxGeometry x="-146" y="-574" width="224" height="27" as="geometry" />
        </mxCell>
        <mxCell id="LN5xQYH5PHp0VQhUfXdN-102" value="&lt;font style=&quot;font-size: 20px;&quot;&gt;MachO_x86_64.h&lt;/font&gt;" style="rounded=0;whiteSpace=wrap;html=1;fillColor=#e1d5e7;strokeColor=#9673a6;strokeWidth=2;fontFamily=Georgia,简宋;" parent="1" vertex="1">
          <mxGeometry x="-146" y="-537" width="224" height="27" as="geometry" />
        </mxCell>
        <mxCell id="LN5xQYH5PHp0VQhUfXdN-103" value="&lt;font style=&quot;font-size: 20px;&quot;&gt;MachO_arm64.h&lt;br&gt;&lt;/font&gt;" style="rounded=0;whiteSpace=wrap;html=1;fillColor=#e1d5e7;strokeColor=#9673a6;strokeWidth=2;fontFamily=Georgia,简宋;" parent="1" vertex="1">
          <mxGeometry x="-146" y="-510" width="224" height="27" as="geometry" />
        </mxCell>
        <mxCell id="LN5xQYH5PHp0VQhUfXdN-104" value="&lt;font&gt;&lt;span style=&quot;font-size: 20px;&quot;&gt;aarch32.h&lt;/span&gt;&lt;/font&gt;" style="rounded=0;whiteSpace=wrap;html=1;fillColor=#fff2cc;strokeColor=#d6b656;strokeWidth=2;fontFamily=Georgia,简宋;" parent="1" vertex="1">
          <mxGeometry x="-207" y="53" width="131" height="27" as="geometry" />
        </mxCell>
        <mxCell id="LN5xQYH5PHp0VQhUfXdN-105" value="&lt;font&gt;&lt;span style=&quot;font-size: 20px;&quot;&gt;aarch64.h&lt;/span&gt;&lt;/font&gt;" style="rounded=0;whiteSpace=wrap;html=1;fillColor=#fff2cc;strokeColor=#d6b656;strokeWidth=2;fontFamily=Georgia,简宋;" parent="1" vertex="1">
          <mxGeometry x="-207" y="80" width="131" height="27" as="geometry" />
        </mxCell>
        <mxCell id="LN5xQYH5PHp0VQhUfXdN-106" value="&lt;font&gt;&lt;span style=&quot;font-size: 20px;&quot;&gt;i386.h&lt;/span&gt;&lt;/font&gt;" style="rounded=0;whiteSpace=wrap;html=1;fillColor=#fff2cc;strokeColor=#d6b656;strokeWidth=2;fontFamily=Georgia,简宋;" parent="1" vertex="1">
          <mxGeometry x="-207" y="107" width="131" height="27" as="geometry" />
        </mxCell>
        <mxCell id="LN5xQYH5PHp0VQhUfXdN-107" value="&lt;font&gt;&lt;span style=&quot;font-size: 20px;&quot;&gt;loongarch.h&lt;/span&gt;&lt;/font&gt;" style="rounded=0;whiteSpace=wrap;html=1;fillColor=#fff2cc;strokeColor=#d6b656;strokeWidth=2;fontFamily=Georgia,简宋;" parent="1" vertex="1">
          <mxGeometry x="-207" y="134" width="131" height="27" as="geometry" />
        </mxCell>
        <mxCell id="LN5xQYH5PHp0VQhUfXdN-108" value="&lt;font&gt;&lt;span style=&quot;font-size: 20px;&quot;&gt;ppc64.h&lt;/span&gt;&lt;/font&gt;" style="rounded=0;whiteSpace=wrap;html=1;fillColor=#fff2cc;strokeColor=#d6b656;strokeWidth=2;fontFamily=Georgia,简宋;" parent="1" vertex="1">
          <mxGeometry x="-207" y="161" width="131" height="27" as="geometry" />
        </mxCell>
        <mxCell id="LN5xQYH5PHp0VQhUfXdN-109" value="&lt;font&gt;&lt;span style=&quot;font-size: 20px;&quot;&gt;riscv.h&lt;/span&gt;&lt;/font&gt;" style="rounded=0;whiteSpace=wrap;html=1;fillColor=#fff2cc;strokeColor=#d6b656;strokeWidth=2;fontFamily=Georgia,简宋;" parent="1" vertex="1">
          <mxGeometry x="-207" y="188" width="131" height="27" as="geometry" />
        </mxCell>
        <mxCell id="LN5xQYH5PHp0VQhUfXdN-110" value="&lt;font&gt;&lt;span style=&quot;font-size: 20px;&quot;&gt;x86_64.h&lt;/span&gt;&lt;/font&gt;" style="rounded=0;whiteSpace=wrap;html=1;fillColor=#fff2cc;strokeColor=#d6b656;strokeWidth=2;fontFamily=Georgia,简宋;" parent="1" vertex="1">
          <mxGeometry x="-207" y="215" width="131" height="27" as="geometry" />
        </mxCell>
        <mxCell id="LN5xQYH5PHp0VQhUfXdN-111" value="X86.h" style="swimlane;whiteSpace=wrap;html=1;strokeWidth=2;fillColor=#e1d5e7;strokeColor=#9673a6;startSize=20;fontFamily=Georgia,简宋;" parent="1" vertex="1">
          <mxGeometry x="-65" y="150" width="143" height="92" as="geometry" />
        </mxCell>
        <mxCell id="LN5xQYH5PHp0VQhUfXdN-112" value="&lt;div style=&quot;text-align: left; font-size: 15px;&quot;&gt;&lt;font&gt;&lt;b&gt;定义边类型的枚举&lt;/b&gt;&lt;/font&gt;&lt;/div&gt;&lt;div style=&quot;text-align: left; font-size: 15px;&quot;&gt;&lt;font&gt;&lt;b&gt;重定位Fixup&lt;/b&gt;&lt;/font&gt;&lt;/div&gt;&lt;div style=&quot;text-align: left; font-size: 15px;&quot;&gt;&lt;font&gt;&lt;b&gt;GOT,PLT类入口&lt;/b&gt;&lt;/font&gt;&lt;/div&gt;" style="rounded=0;whiteSpace=wrap;html=1;fillColor=none;strokeColor=none;strokeWidth=2;fontFamily=Georgia,简宋;" parent="LN5xQYH5PHp0VQhUfXdN-111" vertex="1">
          <mxGeometry y="23" width="140" height="65" as="geometry" />
        </mxCell>
        <mxCell id="LN5xQYH5PHp0VQhUfXdN-114" value="RISCV" style="swimlane;whiteSpace=wrap;html=1;strokeWidth=2;fillColor=#f8cecc;strokeColor=#b85450;fontFamily=Georgia,简宋;" parent="1" vertex="1">
          <mxGeometry x="103" y="-253" width="210" height="91" as="geometry" />
        </mxCell>
        <mxCell id="LN5xQYH5PHp0VQhUfXdN-115" value="&lt;div style=&quot;text-align: left; font-size: 15px;&quot;&gt;&lt;font&gt;构建LinkGraph函数定义;&lt;/font&gt;&lt;/div&gt;&lt;div style=&quot;text-align: left; font-size: 15px;&quot;&gt;&lt;font&gt;链接的函数定义;&lt;/font&gt;&lt;/div&gt;" style="rounded=0;whiteSpace=wrap;html=1;fillColor=none;strokeColor=none;strokeWidth=2;fontFamily=Georgia,简宋;" parent="LN5xQYH5PHp0VQhUfXdN-114" vertex="1">
          <mxGeometry x="-1" y="23" width="211" height="67" as="geometry" />
        </mxCell>
        <mxCell id="LN5xQYH5PHp0VQhUfXdN-116" value="" style="curved=1;endArrow=classicThin;html=1;rounded=0;entryX=0;entryY=0.5;entryDx=0;entryDy=0;strokeWidth=2;endFill=1;fillColor=#e1d5e7;strokeColor=#9673a6;fontFamily=Georgia,简宋;" parent="1" target="LN5xQYH5PHp0VQhUfXdN-115" edge="1">
          <mxGeometry width="50" height="50" relative="1" as="geometry">
            <mxPoint x="78" y="-321" as="sourcePoint" />
            <mxPoint x="104" y="-423" as="targetPoint" />
            <Array as="points">
              <mxPoint x="85" y="-224" />
            </Array>
          </mxGeometry>
        </mxCell>
        <mxCell id="XWInlK-rsa3N5-CSSBgF-1" value="ELF.cpp" style="swimlane;whiteSpace=wrap;html=1;strokeWidth=2;fillColor=#f8cecc;strokeColor=#b85450;startSize=15;fontFamily=Georgia,简宋;" vertex="1" parent="1">
          <mxGeometry x="-65" y="258" width="378" height="81" as="geometry" />
        </mxCell>
        <mxCell id="XWInlK-rsa3N5-CSSBgF-2" value="&lt;div style=&quot;text-align: left; font-size: 15px;&quot;&gt;①读取目标架构&lt;br&gt;②建立LinkGraph入口(switch)&lt;br&gt;③链接入口(switch)&lt;/div&gt;" style="rounded=0;whiteSpace=wrap;html=1;fillColor=none;strokeColor=none;strokeWidth=2;fontFamily=Georgia,简宋;" vertex="1" parent="XWInlK-rsa3N5-CSSBgF-1">
          <mxGeometry y="15.5" width="377" height="64.5" as="geometry" />
        </mxCell>
        <mxCell id="XWInlK-rsa3N5-CSSBgF-3" value="JITLink.cpp" style="swimlane;whiteSpace=wrap;html=1;strokeWidth=2;fillColor=#f8cecc;strokeColor=#b85450;startSize=15;fontFamily=Georgia,简宋;" vertex="1" parent="1">
          <mxGeometry x="-65" y="339" width="378" height="81" as="geometry" />
        </mxCell>
        <mxCell id="XWInlK-rsa3N5-CSSBgF-4" value="&lt;div style=&quot;text-align: left; font-size: 15px;&quot;&gt;①LinkGraph操作接口与调试信息&lt;br&gt;②跳转Stub入口(switch)&lt;/div&gt;&lt;div style=&quot;text-align: left; font-size: 15px;&quot;&gt;③建立LinkGraph,链接的二进制文件类型入口(switch)&lt;/div&gt;" style="rounded=0;whiteSpace=wrap;html=1;fillColor=none;strokeColor=none;strokeWidth=2;fontFamily=Georgia,简宋;" vertex="1" parent="XWInlK-rsa3N5-CSSBgF-3">
          <mxGeometry y="15.5" width="377" height="64.5" as="geometry" />
        </mxCell>
        <mxCell id="XWInlK-rsa3N5-CSSBgF-5" value="JITLink.cpp" style="swimlane;whiteSpace=wrap;html=1;strokeWidth=2;fillColor=#f8cecc;strokeColor=#b85450;startSize=15;fontFamily=Georgia,简宋;" vertex="1" parent="1">
          <mxGeometry x="-65" y="420" width="378" height="54" as="geometry" />
        </mxCell>
        <mxCell id="XWInlK-rsa3N5-CSSBgF-6" value="&lt;div style=&quot;text-align: left; font-size: 15px;&quot;&gt;①JITLink的主链接阶段(Phase1~4)和剪枝操作&lt;br&gt;②查询符号和外部符号&lt;/div&gt;" style="rounded=0;whiteSpace=wrap;html=1;fillColor=none;strokeColor=none;strokeWidth=2;fontFamily=Georgia,简宋;" vertex="1" parent="XWInlK-rsa3N5-CSSBgF-5">
          <mxGeometry y="15.5" width="377" height="36.5" as="geometry" />
        </mxCell>
        <mxCell id="XWInlK-rsa3N5-CSSBgF-7" value="&lt;font style=&quot;font-size: 24px;&quot;&gt;Generic Link Algorithm&lt;/font&gt;" style="rounded=0;whiteSpace=wrap;html=1;fillColor=#f8cecc;strokeColor=#b85450;strokeWidth=2;fontSize=24;fontFamily=Georgia,简宋;" vertex="1" parent="1">
          <mxGeometry x="838" y="-244" width="777" height="60" as="geometry" />
        </mxCell>
        <mxCell id="XWInlK-rsa3N5-CSSBgF-27" value="" style="edgeStyle=orthogonalEdgeStyle;rounded=0;orthogonalLoop=1;jettySize=auto;html=1;startSize=3;endSize=5;endArrow=openThin;endFill=0;strokeWidth=2;fillColor=#f5f5f5;strokeColor=#666666;" edge="1" parent="1" source="XWInlK-rsa3N5-CSSBgF-9" target="XWInlK-rsa3N5-CSSBgF-13">
          <mxGeometry relative="1" as="geometry" />
        </mxCell>
        <mxCell id="XWInlK-rsa3N5-CSSBgF-9" value="&lt;font style=&quot;font-size: 20px;&quot;&gt;Phase1&lt;br&gt;&lt;/font&gt;" style="rounded=0;whiteSpace=wrap;html=1;fillColor=#fff2cc;strokeColor=#d6b656;strokeWidth=2;fontFamily=Georgia,简宋;" vertex="1" parent="1">
          <mxGeometry x="838" y="-172" width="160" height="56" as="geometry" />
        </mxCell>
        <mxCell id="XWInlK-rsa3N5-CSSBgF-10" value="&lt;font style=&quot;font-size: 20px;&quot;&gt;Phase2&lt;br&gt;&lt;/font&gt;" style="rounded=0;whiteSpace=wrap;html=1;fillColor=#fff2cc;strokeColor=#d6b656;strokeWidth=2;fontFamily=Georgia,简宋;" vertex="1" parent="1">
          <mxGeometry x="1044" y="-172" width="160" height="56" as="geometry" />
        </mxCell>
        <mxCell id="XWInlK-rsa3N5-CSSBgF-11" value="&lt;font style=&quot;font-size: 20px;&quot;&gt;Phase3&lt;br&gt;&lt;/font&gt;" style="rounded=0;whiteSpace=wrap;html=1;fillColor=#fff2cc;strokeColor=#d6b656;strokeWidth=2;fontFamily=Georgia,简宋;" vertex="1" parent="1">
          <mxGeometry x="1250" y="-172" width="160" height="56" as="geometry" />
        </mxCell>
        <mxCell id="XWInlK-rsa3N5-CSSBgF-12" value="&lt;font style=&quot;font-size: 20px;&quot;&gt;Phase4&lt;br&gt;&lt;/font&gt;" style="rounded=0;whiteSpace=wrap;html=1;fillColor=#fff2cc;strokeColor=#d6b656;strokeWidth=2;fontFamily=Georgia,简宋;" vertex="1" parent="1">
          <mxGeometry x="1456" y="-172" width="160" height="56" as="geometry" />
        </mxCell>
        <mxCell id="XWInlK-rsa3N5-CSSBgF-13" value="&lt;font style=&quot;font-size: 17px;&quot;&gt;①预修剪pass&lt;br style=&quot;font-size: 17px;&quot;&gt;&lt;/font&gt;" style="rounded=0;whiteSpace=wrap;html=1;fillColor=#dae8fc;strokeColor=#6c8ebf;strokeWidth=2;fontFamily=Georgia,简宋;fontSize=17;" vertex="1" parent="1">
          <mxGeometry x="838" y="-21" width="160" height="43" as="geometry" />
        </mxCell>
        <mxCell id="XWInlK-rsa3N5-CSSBgF-17" value="&lt;font style=&quot;font-size: 17px;&quot;&gt;③修剪后pass&lt;br style=&quot;font-size: 17px;&quot;&gt;&lt;/font&gt;" style="rounded=0;whiteSpace=wrap;html=1;fillColor=#dae8fc;strokeColor=#6c8ebf;strokeWidth=2;fontFamily=Georgia,简宋;fontSize=17;" vertex="1" parent="1">
          <mxGeometry x="838" y="117" width="160" height="43" as="geometry" />
        </mxCell>
        <mxCell id="XWInlK-rsa3N5-CSSBgF-18" value="&lt;font style=&quot;font-size: 17px;&quot;&gt;④异步分配内存&lt;br style=&quot;font-size: 17px;&quot;&gt;&lt;/font&gt;" style="rounded=0;whiteSpace=wrap;html=1;fillColor=#dae8fc;strokeColor=#6c8ebf;strokeWidth=2;fontFamily=Georgia,简宋;fontSize=17;" vertex="1" parent="1">
          <mxGeometry x="838" y="186" width="160" height="43" as="geometry" />
        </mxCell>
        <mxCell id="XWInlK-rsa3N5-CSSBgF-19" value="&lt;font style=&quot;font-size: 17px;&quot;&gt;①后分配pass&lt;br style=&quot;font-size: 17px;&quot;&gt;&lt;/font&gt;" style="rounded=0;whiteSpace=wrap;html=1;fillColor=#dae8fc;strokeColor=#6c8ebf;strokeWidth=2;fontFamily=Georgia,简宋;fontSize=17;" vertex="1" parent="1">
          <mxGeometry x="1044" y="-21" width="160" height="43" as="geometry" />
        </mxCell>
        <mxCell id="XWInlK-rsa3N5-CSSBgF-20" value="&lt;font style=&quot;font-size: 17px;&quot;&gt;③外部符号异步解析&lt;br style=&quot;font-size: 17px;&quot;&gt;&lt;/font&gt;" style="rounded=0;whiteSpace=wrap;html=1;fillColor=#dae8fc;strokeColor=#6c8ebf;strokeWidth=2;fontFamily=Georgia,简宋;fontSize=17;" vertex="1" parent="1">
          <mxGeometry x="1044" y="186" width="160" height="43" as="geometry" />
        </mxCell>
        <mxCell id="XWInlK-rsa3N5-CSSBgF-21" value="&lt;font style=&quot;font-size: 17px;&quot;&gt;①更新外部符号地址&lt;br style=&quot;font-size: 17px;&quot;&gt;&lt;/font&gt;" style="rounded=0;whiteSpace=wrap;html=1;fillColor=#dae8fc;strokeColor=#6c8ebf;strokeWidth=2;fontFamily=Georgia,简宋;fontSize=17;" vertex="1" parent="1">
          <mxGeometry x="1250" y="-90" width="160" height="43" as="geometry" />
        </mxCell>
        <mxCell id="XWInlK-rsa3N5-CSSBgF-22" value="&lt;font style=&quot;font-size: 17px;&quot;&gt;②预修复pass&lt;br style=&quot;font-size: 17px;&quot;&gt;&lt;/font&gt;" style="rounded=0;whiteSpace=wrap;html=1;fillColor=#dae8fc;strokeColor=#6c8ebf;strokeWidth=2;fontFamily=Georgia,简宋;fontSize=17;" vertex="1" parent="1">
          <mxGeometry x="1250" y="-21" width="160" height="43" as="geometry" />
        </mxCell>
        <mxCell id="XWInlK-rsa3N5-CSSBgF-24" value="&lt;font style=&quot;font-size: 17px;&quot;&gt;④后修复pass&lt;br style=&quot;font-size: 17px;&quot;&gt;&lt;/font&gt;" style="rounded=0;whiteSpace=wrap;html=1;fillColor=#dae8fc;strokeColor=#6c8ebf;strokeWidth=2;fontFamily=Georgia,简宋;fontSize=17;" vertex="1" parent="1">
          <mxGeometry x="1250" y="117" width="160" height="43" as="geometry" />
        </mxCell>
        <mxCell id="XWInlK-rsa3N5-CSSBgF-25" value="&lt;font style=&quot;font-size: 17px;&quot;&gt;⑤异步最终化内存&lt;br style=&quot;font-size: 17px;&quot;&gt;&lt;/font&gt;" style="rounded=0;whiteSpace=wrap;html=1;fillColor=#dae8fc;strokeColor=#6c8ebf;strokeWidth=2;fontFamily=Georgia,简宋;fontSize=17;" vertex="1" parent="1">
          <mxGeometry x="1250" y="186" width="160" height="43" as="geometry" />
        </mxCell>
        <mxCell id="XWInlK-rsa3N5-CSSBgF-26" value="&lt;font style=&quot;font-size: 17px;&quot;&gt;①通知上下文&lt;br&gt;图已发出&lt;br style=&quot;font-size: 17px;&quot;&gt;&lt;/font&gt;" style="rounded=0;whiteSpace=wrap;html=1;fillColor=#dae8fc;strokeColor=#6c8ebf;strokeWidth=2;fontFamily=Georgia,简宋;fontSize=17;" vertex="1" parent="1">
          <mxGeometry x="1456" y="-90" width="160" height="43" as="geometry" />
        </mxCell>
        <mxCell id="XWInlK-rsa3N5-CSSBgF-28" value="" style="edgeStyle=orthogonalEdgeStyle;rounded=0;orthogonalLoop=1;jettySize=auto;html=1;startSize=3;endSize=5;endArrow=openThin;endFill=0;strokeWidth=2;fillColor=#f5f5f5;strokeColor=#666666;" edge="1" parent="1">
          <mxGeometry relative="1" as="geometry">
            <mxPoint x="1123.5" y="-116" as="sourcePoint" />
            <mxPoint x="1123.5" y="-21" as="targetPoint" />
          </mxGeometry>
        </mxCell>
        <mxCell id="XWInlK-rsa3N5-CSSBgF-30" value="" style="edgeStyle=orthogonalEdgeStyle;rounded=0;orthogonalLoop=1;jettySize=auto;html=1;startSize=3;endSize=5;endArrow=openThin;endFill=0;strokeWidth=2;fillColor=#f5f5f5;strokeColor=#666666;" edge="1" parent="1">
          <mxGeometry relative="1" as="geometry">
            <mxPoint x="917.78" y="22" as="sourcePoint" />
            <mxPoint x="918" y="47" as="targetPoint" />
          </mxGeometry>
        </mxCell>
        <mxCell id="XWInlK-rsa3N5-CSSBgF-31" value="" style="edgeStyle=orthogonalEdgeStyle;rounded=0;orthogonalLoop=1;jettySize=auto;html=1;startSize=3;endSize=5;endArrow=openThin;endFill=0;strokeWidth=2;fillColor=#f5f5f5;strokeColor=#666666;" edge="1" parent="1">
          <mxGeometry relative="1" as="geometry">
            <mxPoint x="917.8399999999999" y="92" as="sourcePoint" />
            <mxPoint x="918.06" y="117" as="targetPoint" />
          </mxGeometry>
        </mxCell>
        <mxCell id="XWInlK-rsa3N5-CSSBgF-32" value="" style="edgeStyle=orthogonalEdgeStyle;rounded=0;orthogonalLoop=1;jettySize=auto;html=1;startSize=3;endSize=5;endArrow=openThin;endFill=0;strokeWidth=2;fillColor=#f5f5f5;strokeColor=#666666;" edge="1" parent="1">
          <mxGeometry relative="1" as="geometry">
            <mxPoint x="917.8399999999999" y="160" as="sourcePoint" />
            <mxPoint x="918.06" y="185" as="targetPoint" />
          </mxGeometry>
        </mxCell>
        <mxCell id="XWInlK-rsa3N5-CSSBgF-35" value="" style="edgeStyle=orthogonalEdgeStyle;rounded=0;orthogonalLoop=1;jettySize=auto;html=1;startSize=3;endSize=5;endArrow=openThin;endFill=0;strokeWidth=2;fillColor=#f5f5f5;strokeColor=#666666;entryX=0.5;entryY=0;entryDx=0;entryDy=0;" edge="1" parent="1" target="XWInlK-rsa3N5-CSSBgF-84">
          <mxGeometry relative="1" as="geometry">
            <mxPoint x="1123.63" y="22" as="sourcePoint" />
            <mxPoint x="1123.63" y="117" as="targetPoint" />
          </mxGeometry>
        </mxCell>
        <mxCell id="XWInlK-rsa3N5-CSSBgF-36" value="" style="edgeStyle=orthogonalEdgeStyle;rounded=0;orthogonalLoop=1;jettySize=auto;html=1;startSize=3;endSize=5;endArrow=openThin;endFill=0;strokeWidth=2;fillColor=#f5f5f5;strokeColor=#666666;" edge="1" parent="1">
          <mxGeometry relative="1" as="geometry">
            <mxPoint x="1329.63" y="-115" as="sourcePoint" />
            <mxPoint x="1329.85" y="-90" as="targetPoint" />
          </mxGeometry>
        </mxCell>
        <mxCell id="XWInlK-rsa3N5-CSSBgF-37" value="" style="edgeStyle=orthogonalEdgeStyle;rounded=0;orthogonalLoop=1;jettySize=auto;html=1;startSize=3;endSize=5;endArrow=openThin;endFill=0;strokeWidth=2;fillColor=#f5f5f5;strokeColor=#666666;" edge="1" parent="1">
          <mxGeometry relative="1" as="geometry">
            <mxPoint x="1329.6299999999999" y="-47" as="sourcePoint" />
            <mxPoint x="1329.85" y="-22" as="targetPoint" />
          </mxGeometry>
        </mxCell>
        <mxCell id="XWInlK-rsa3N5-CSSBgF-38" value="" style="edgeStyle=orthogonalEdgeStyle;rounded=0;orthogonalLoop=1;jettySize=auto;html=1;startSize=3;endSize=5;endArrow=openThin;endFill=0;strokeWidth=2;fillColor=#f5f5f5;strokeColor=#666666;" edge="1" parent="1">
          <mxGeometry relative="1" as="geometry">
            <mxPoint x="1329.6299999999999" y="23" as="sourcePoint" />
            <mxPoint x="1329.85" y="48" as="targetPoint" />
          </mxGeometry>
        </mxCell>
        <mxCell id="XWInlK-rsa3N5-CSSBgF-39" value="" style="edgeStyle=orthogonalEdgeStyle;rounded=0;orthogonalLoop=1;jettySize=auto;html=1;startSize=3;endSize=5;endArrow=openThin;endFill=0;strokeWidth=2;fillColor=#f5f5f5;strokeColor=#666666;" edge="1" parent="1">
          <mxGeometry relative="1" as="geometry">
            <mxPoint x="1329.6299999999999" y="91" as="sourcePoint" />
            <mxPoint x="1329.85" y="116" as="targetPoint" />
          </mxGeometry>
        </mxCell>
        <mxCell id="XWInlK-rsa3N5-CSSBgF-40" value="" style="edgeStyle=orthogonalEdgeStyle;rounded=0;orthogonalLoop=1;jettySize=auto;html=1;startSize=3;endSize=5;endArrow=openThin;endFill=0;strokeWidth=2;fillColor=#f5f5f5;strokeColor=#666666;" edge="1" parent="1">
          <mxGeometry relative="1" as="geometry">
            <mxPoint x="1329.6299999999999" y="160" as="sourcePoint" />
            <mxPoint x="1329.85" y="185" as="targetPoint" />
          </mxGeometry>
        </mxCell>
        <mxCell id="XWInlK-rsa3N5-CSSBgF-41" value="" style="edgeStyle=orthogonalEdgeStyle;rounded=0;orthogonalLoop=1;jettySize=auto;html=1;startSize=3;endSize=5;endArrow=openThin;endFill=0;strokeWidth=2;fillColor=#f5f5f5;strokeColor=#666666;" edge="1" parent="1">
          <mxGeometry relative="1" as="geometry">
            <mxPoint x="1535.6299999999999" y="-115" as="sourcePoint" />
            <mxPoint x="1535.85" y="-90" as="targetPoint" />
          </mxGeometry>
        </mxCell>
        <mxCell id="XWInlK-rsa3N5-CSSBgF-42" value="" style="edgeStyle=orthogonalEdgeStyle;rounded=0;orthogonalLoop=1;jettySize=auto;html=1;startSize=3;endSize=5;endArrow=openThin;endFill=0;strokeWidth=2;entryX=0;entryY=0.5;entryDx=0;entryDy=0;fillColor=#f5f5f5;strokeColor=#ababab;exitX=1;exitY=0.5;exitDx=0;exitDy=0;" edge="1" parent="1" source="XWInlK-rsa3N5-CSSBgF-18" target="XWInlK-rsa3N5-CSSBgF-10">
          <mxGeometry relative="1" as="geometry">
            <mxPoint x="917.5700000000002" y="334" as="sourcePoint" />
            <mxPoint x="1068" y="111" as="targetPoint" />
            <Array as="points">
              <mxPoint x="1020" y="208" />
              <mxPoint x="1020" y="-144" />
            </Array>
          </mxGeometry>
        </mxCell>
        <mxCell id="XWInlK-rsa3N5-CSSBgF-43" value="" style="edgeStyle=orthogonalEdgeStyle;rounded=0;orthogonalLoop=1;jettySize=auto;html=1;startSize=3;endSize=5;endArrow=openThin;endFill=0;strokeWidth=2;entryX=0;entryY=0.5;entryDx=0;entryDy=0;fillColor=#f5f5f5;strokeColor=#ababab;exitX=1;exitY=0.5;exitDx=0;exitDy=0;" edge="1" parent="1" source="XWInlK-rsa3N5-CSSBgF-20">
          <mxGeometry relative="1" as="geometry">
            <mxPoint x="1123.5700000000002" y="335" as="sourcePoint" />
            <mxPoint x="1250" y="-143" as="targetPoint" />
            <Array as="points">
              <mxPoint x="1226" y="208" />
              <mxPoint x="1226" y="-143" />
            </Array>
          </mxGeometry>
        </mxCell>
        <mxCell id="XWInlK-rsa3N5-CSSBgF-44" value="" style="edgeStyle=orthogonalEdgeStyle;rounded=0;orthogonalLoop=1;jettySize=auto;html=1;startSize=3;endSize=5;endArrow=openThin;endFill=0;strokeWidth=2;entryX=0;entryY=0.5;entryDx=0;entryDy=0;fillColor=#f5f5f5;strokeColor=#ababab;exitX=1;exitY=0.5;exitDx=0;exitDy=0;" edge="1" parent="1" source="XWInlK-rsa3N5-CSSBgF-25">
          <mxGeometry relative="1" as="geometry">
            <mxPoint x="1329.5700000000002" y="334" as="sourcePoint" />
            <mxPoint x="1456" y="-144" as="targetPoint" />
            <Array as="points">
              <mxPoint x="1432" y="208" />
              <mxPoint x="1432" y="-144" />
            </Array>
          </mxGeometry>
        </mxCell>
        <mxCell id="XWInlK-rsa3N5-CSSBgF-47" value="架构相关定制" style="text;html=1;align=center;verticalAlign=middle;resizable=0;points=[];autosize=1;strokeColor=none;fillColor=none;fontFamily=方正小标宋简体;fontSize=15;" vertex="1" parent="1">
          <mxGeometry x="726" y="-14.5" width="108" height="30" as="geometry" />
        </mxCell>
        <mxCell id="XWInlK-rsa3N5-CSSBgF-48" value="架构相关定制" style="text;html=1;align=center;verticalAlign=middle;resizable=0;points=[];autosize=1;strokeColor=none;fillColor=none;fontFamily=方正小标宋简体;fontSize=15;" vertex="1" parent="1">
          <mxGeometry x="726" y="123.5" width="108" height="30" as="geometry" />
        </mxCell>
        <mxCell id="XWInlK-rsa3N5-CSSBgF-49" value="" style="endArrow=openThin;html=1;rounded=0;entryX=0;entryY=0.5;entryDx=0;entryDy=0;fillColor=#fff2cc;strokeColor=#d6b656;strokeWidth=3;endFill=0;" edge="1" parent="1" target="XWInlK-rsa3N5-CSSBgF-9">
          <mxGeometry width="50" height="50" relative="1" as="geometry">
            <mxPoint x="745" y="-144" as="sourcePoint" />
            <mxPoint x="695" y="-175" as="targetPoint" />
          </mxGeometry>
        </mxCell>
        <mxCell id="XWInlK-rsa3N5-CSSBgF-50" value="" style="endArrow=openThin;html=1;rounded=0;entryX=0;entryY=0.5;entryDx=0;entryDy=0;fillColor=#fff2cc;strokeColor=#d6b656;strokeWidth=3;endFill=0;" edge="1" parent="1">
          <mxGeometry width="50" height="50" relative="1" as="geometry">
            <mxPoint x="1616" y="-144.36" as="sourcePoint" />
            <mxPoint x="1709" y="-144.36" as="targetPoint" />
          </mxGeometry>
        </mxCell>
        <mxCell id="XWInlK-rsa3N5-CSSBgF-53" value="&lt;font style=&quot;font-size: 17px;&quot;&gt;&lt;div style=&quot;border-color: var(--border-color);&quot;&gt;&lt;b style=&quot;border-color: var(--border-color);&quot;&gt;②剪枝&lt;/b&gt;&lt;/div&gt;&lt;div style=&quot;border-color: var(--border-color);&quot;&gt;&lt;span style=&quot;border-color: var(--border-color); background-color: initial;&quot;&gt;移除不可达符号内容&lt;/span&gt;&lt;/div&gt;&lt;/font&gt;" style="rounded=0;whiteSpace=wrap;html=1;fillColor=#dae8fc;strokeColor=#6c8ebf;strokeWidth=2;fontFamily=Georgia,简宋;fontSize=17;" vertex="1" parent="1">
          <mxGeometry x="838" y="48" width="160" height="43" as="geometry" />
        </mxCell>
        <mxCell id="XWInlK-rsa3N5-CSSBgF-54" value="&lt;font style=&quot;font-size: 17px;&quot;&gt;&lt;div style=&quot;border-color: var(--border-color);&quot;&gt;&lt;b style=&quot;border-color: var(--border-color);&quot;&gt;③修复Fixup：&lt;/b&gt;内容移植工作内存进行fix&lt;br&gt;&lt;/div&gt;&lt;/font&gt;" style="rounded=0;whiteSpace=wrap;html=1;fillColor=#dae8fc;strokeColor=#6c8ebf;strokeWidth=2;fontFamily=Georgia,简宋;fontSize=17;" vertex="1" parent="1">
          <mxGeometry x="1250" y="48" width="160" height="43" as="geometry" />
        </mxCell>
        <mxCell id="XWInlK-rsa3N5-CSSBgF-60" value="" style="group" vertex="1" connectable="0" parent="1">
          <mxGeometry x="829" y="260" width="202" height="63" as="geometry" />
        </mxCell>
        <mxCell id="XWInlK-rsa3N5-CSSBgF-58" value="" style="verticalLabelPosition=bottom;verticalAlign=top;html=1;shape=mxgraph.basic.layered_rect;dx=10;outlineConnect=0;whiteSpace=wrap;fillColor=#ffe6cc;strokeColor=#d79b00;" vertex="1" parent="XWInlK-rsa3N5-CSSBgF-60">
          <mxGeometry y="3" width="196" height="60" as="geometry" />
        </mxCell>
        <mxCell id="XWInlK-rsa3N5-CSSBgF-59" value="&lt;font face=&quot;Georgia, 简宋&quot;&gt;③受益于修剪&lt;br&gt;图仍可新增:目标和工作内存未分配&lt;br&gt;例如: GOT,PLT,TLV&lt;/font&gt;" style="text;html=1;align=left;verticalAlign=middle;resizable=0;points=[];autosize=1;strokeColor=none;fillColor=none;" vertex="1" parent="XWInlK-rsa3N5-CSSBgF-60">
          <mxGeometry width="202" height="55" as="geometry" />
        </mxCell>
        <mxCell id="XWInlK-rsa3N5-CSSBgF-62" value="" style="verticalLabelPosition=bottom;verticalAlign=top;html=1;shape=mxgraph.basic.layered_rect;dx=10;outlineConnect=0;whiteSpace=wrap;fillColor=#ffe6cc;strokeColor=#d79b00;" vertex="1" parent="1">
          <mxGeometry x="829" y="312" width="196" height="97" as="geometry" />
        </mxCell>
        <mxCell id="XWInlK-rsa3N5-CSSBgF-66" value="④为图分配工作和目标内存:更新图&lt;br&gt;中所有定义的节点的地址为它们分&lt;br&gt;配的目标地址；此步骤只更新在此&lt;br&gt;图中定义的节点的地址。外部符号&lt;br&gt;仍将有空地址。" style="text;html=1;align=left;verticalAlign=middle;resizable=0;points=[];autosize=1;strokeColor=none;fillColor=none;fontFamily=Georgia,简宋;" vertex="1" parent="1">
          <mxGeometry x="829" y="315" width="202" height="84" as="geometry" />
        </mxCell>
        <mxCell id="XWInlK-rsa3N5-CSSBgF-79" value="" style="group" vertex="1" connectable="0" parent="1">
          <mxGeometry x="1044" y="260" width="182" height="63" as="geometry" />
        </mxCell>
        <mxCell id="XWInlK-rsa3N5-CSSBgF-80" value="" style="verticalLabelPosition=bottom;verticalAlign=top;html=1;shape=mxgraph.basic.layered_rect;dx=10;outlineConnect=0;whiteSpace=wrap;fillColor=#ffe6cc;strokeColor=#d79b00;" vertex="1" parent="XWInlK-rsa3N5-CSSBgF-79">
          <mxGeometry y="3" width="176.59405940594056" height="60" as="geometry" />
        </mxCell>
        <mxCell id="XWInlK-rsa3N5-CSSBgF-81" value="&lt;font face=&quot;Georgia, 简宋&quot;&gt;①设置与目标相关的数据结构&lt;br&gt;在途中符号最终地址之前运行&lt;br&gt;&lt;/font&gt;" style="text;html=1;align=left;verticalAlign=middle;resizable=0;points=[];autosize=1;strokeColor=none;fillColor=none;" vertex="1" parent="XWInlK-rsa3N5-CSSBgF-79">
          <mxGeometry y="7" width="174" height="41" as="geometry" />
        </mxCell>
        <mxCell id="XWInlK-rsa3N5-CSSBgF-84" value="&lt;font style=&quot;font-size: 17px;&quot;&gt;②分配符号地址&lt;br style=&quot;font-size: 17px;&quot;&gt;&lt;/font&gt;" style="rounded=0;whiteSpace=wrap;html=1;fillColor=#dae8fc;strokeColor=#6c8ebf;strokeWidth=2;fontFamily=Georgia,简宋;fontSize=17;" vertex="1" parent="1">
          <mxGeometry x="1044" y="45" width="160" height="43" as="geometry" />
        </mxCell>
        <mxCell id="XWInlK-rsa3N5-CSSBgF-87" value="" style="verticalLabelPosition=bottom;verticalAlign=top;html=1;shape=mxgraph.basic.layered_rect;dx=10;outlineConnect=0;whiteSpace=wrap;fillColor=#ffe6cc;strokeColor=#d79b00;" vertex="1" parent="1">
          <mxGeometry x="1246" y="263" width="176.59405940594056" height="60" as="geometry" />
        </mxCell>
        <mxCell id="XWInlK-rsa3N5-CSSBgF-88" value="&lt;font face=&quot;Georgia, 简宋&quot;&gt;①所有节点有最终地址，但内&lt;br&gt;容仍指向原数据（未修正）&lt;br&gt;&lt;/font&gt;" style="text;html=1;align=left;verticalAlign=middle;resizable=0;points=[];autosize=1;strokeColor=none;fillColor=none;" vertex="1" parent="1">
          <mxGeometry x="1250" y="268.00333333333333" width="174" height="41" as="geometry" />
        </mxCell>
        <mxCell id="XWInlK-rsa3N5-CSSBgF-89" value="" style="edgeStyle=orthogonalEdgeStyle;rounded=0;orthogonalLoop=1;jettySize=auto;html=1;startSize=3;endSize=5;endArrow=openThin;endFill=0;strokeWidth=2;fillColor=#f5f5f5;strokeColor=#666666;" edge="1" parent="1">
          <mxGeometry relative="1" as="geometry">
            <mxPoint x="1123.72" y="88" as="sourcePoint" />
            <mxPoint x="1124" y="186" as="targetPoint" />
          </mxGeometry>
        </mxCell>
        <mxCell id="XWInlK-rsa3N5-CSSBgF-90" value="" style="verticalLabelPosition=bottom;verticalAlign=top;html=1;shape=mxgraph.basic.layered_rect;dx=10;outlineConnect=0;whiteSpace=wrap;fillColor=#ffe6cc;strokeColor=#d79b00;" vertex="1" parent="1">
          <mxGeometry x="1246" y="312" width="176.59405940594056" height="60" as="geometry" />
        </mxCell>
        <mxCell id="XWInlK-rsa3N5-CSSBgF-91" value="&lt;font face=&quot;Georgia, 简宋&quot;&gt;②对图内容晚期优化:如GOT和&lt;br&gt;PLT的relax。&lt;br&gt;&lt;/font&gt;" style="text;html=1;align=left;verticalAlign=middle;resizable=0;points=[];autosize=1;strokeColor=none;fillColor=none;" vertex="1" parent="1">
          <mxGeometry x="1249.3" y="317.00333333333333" width="179" height="41" as="geometry" />
        </mxCell>
        <mxCell id="XWInlK-rsa3N5-CSSBgF-92" value="" style="verticalLabelPosition=bottom;verticalAlign=top;html=1;shape=mxgraph.basic.layered_rect;dx=10;outlineConnect=0;whiteSpace=wrap;fillColor=#ffe6cc;strokeColor=#d79b00;" vertex="1" parent="1">
          <mxGeometry x="1246" y="362" width="176.59405940594056" height="60" as="geometry" />
        </mxCell>
        <mxCell id="XWInlK-rsa3N5-CSSBgF-93" value="&lt;font face=&quot;Georgia, 简宋&quot;&gt;④检查分配目标地址的确切&lt;br&gt;字节。&lt;br&gt;&lt;/font&gt;" style="text;html=1;align=left;verticalAlign=middle;resizable=0;points=[];autosize=1;strokeColor=none;fillColor=none;" vertex="1" parent="1">
          <mxGeometry x="1249.3" y="367.00333333333333" width="162" height="41" as="geometry" />
        </mxCell>
      </root>
    </mxGraphModel>
  </diagram>
</mxfile>
